<?xml version="1.0" standalone="no"?>
<!DOCTYPE svg PUBLIC "-//W3C//DTD SVG 20010904//EN"
 "http://www.w3.org/TR/2001/REC-SVG-20010904/DTD/svg10.dtd">
<svg version="1.0" xmlns="http://www.w3.org/2000/svg"
 width="82.000000pt" height="82.000000pt" viewBox="0 0 82.000000 82.000000"
 preserveAspectRatio="xMidYMid meet">

<g transform="translate(0.000000,82.000000) scale(0.100000,-0.100000)"
fill="#0047AB" stroke="none">
<path d="M0 410 l0 -410 410 0 410 0 0 410 0 410 -410 0 -410 0 0 -410z m770
0 l0 -360 -360 0 -360 0 0 360 0 360 360 0 360 0 0 -360z"/>
<path d="M100 410 l0 -310 308 2 307 3 0 305 0 305 -307 3 -308 2 0 -310z
m180 155 l0 -45 -45 0 -45 0 0 45 0 45 45 0 45 0 0 -45z m170 -1 l0 -45 -42 3
c-43 3 -43 3 -46 46 l-3 42 45 0 46 0 0 -46z m180 1 l0 -45 -45 0 -45 0 0 45
0 45 45 0 45 0 0 -45z m-350 -155 l0 -40 -45 0 -45 0 0 40 0 40 45 0 45 0 0
-40z m170 0 l0 -40 -45 0 -45 0 0 40 0 40 45 0 45 0 0 -40z m180 0 l0 -40 -45
0 -45 0 0 40 0 40 45 0 45 0 0 -40z m-350 -155 l0 -45 -45 0 -45 0 0 45 0 45
45 0 45 0 0 -45z m170 0 l0 -45 -45 0 -45 0 0 38 c0 21 3 42 7 45 3 4 24 7 45
7 l38 0 0 -45z m180 0 l0 -45 -45 0 -45 0 0 45 0 45 45 0 45 0 0 -45z"/>
</g>
</svg>
